<svg width="16" height="16" viewBox="0 0 16 16" fill="none" xmlns="http://www.w3.org/2000/svg">
<path d="M14.1666 5.16779L12.1111 2.5H3.88887L1.83331 5.16779M14.1666 5.16779V5.83474C14.1666 6.42732 13.902 6.95973 13.4815 7.3261M14.1666 5.16779H1.83331M1.83331 5.16779V5.83474C1.83331 6.42732 2.09797 6.95973 2.5185 7.3261M10.0555 5.83474C10.0555 6.93977 10.9758 7.83558 12.1111 7.83558C12.6376 7.83558 13.1178 7.64293 13.4815 7.3261M10.0555 5.83474V5.16779M10.0555 5.83474C10.0555 6.93977 9.13523 7.83558 7.99998 7.83558C6.86473 7.83558 5.94442 6.93977 5.94442 5.83474M5.94442 5.83474C5.94442 6.93977 5.02412 7.83558 3.88887 7.83558C3.3624 7.83558 2.88216 7.64293 2.5185 7.3261M5.94442 5.83474V5.16779M9.37034 13.5L9.37035 11.4992C9.37035 10.7625 8.75681 10.1653 7.99998 10.1653C7.24315 10.1653 6.62962 10.7625 6.62961 11.4992L6.62961 13.5M2.5185 7.3261V13.5H13.4815V7.3261" stroke="white"/>
</svg>
